<svg width="110" height="30" viewBox="0 0 110 30" fill="none" xmlns="http://www.w3.org/2000/svg">
<path d="M74.3333 19.9847C73.8687 20.1221 73.3525 20.1965 72.7731 20.1965C72.2512 20.1965 71.7521 20.1049 71.2703 19.9275C70.7885 19.7501 70.3583 19.504 69.9797 19.1949C69.6011 18.8859 69.2914 18.5139 69.0619 18.0847C68.8325 17.6555 68.6948 17.1805 68.6547 16.6597H79.622C79.5761 14.6509 79.4786 13.2659 79.1287 12.2987C78.7788 11.3315 78.2912 10.5189 77.6717 9.87217C77.0522 9.22547 76.3123 8.73329 75.4633 8.40136C74.6144 8.06942 73.6852 7.90918 72.6814 7.90918C71.5972 7.90918 70.5934 8.09232 69.6642 8.46431C68.735 8.83631 67.9262 9.35138 67.2436 10.021C66.561 10.6906 66.0276 11.4975 65.6375 12.4475C65.2475 13.3975 65.0524 14.4506 65.0524 15.6123C65.0524 16.7913 65.2475 17.8443 65.6375 18.7772C66.0276 19.7043 66.5667 20.4941 67.2608 21.1293C67.9549 21.7703 68.7694 22.2625 69.7101 22.6116C70.6508 22.9607 71.6833 23.1381 72.8076 23.1381C74.0064 23.1381 75.0733 22.9378 76.0197 22.5601C75.0503 22.0793 74.3792 21.1179 74.3333 19.9847ZM69.9051 11.5776C70.6565 10.9309 71.5743 10.6047 72.6527 10.6047C73.232 10.6047 73.7368 10.702 74.1727 10.8909C74.6029 11.0797 74.9586 11.3373 75.2396 11.6577C75.5207 11.9782 75.7272 12.3445 75.8534 12.768C75.9853 13.1858 76.0484 13.6265 76.0484 14.0843H68.6547C68.735 13.0599 69.1537 12.2243 69.9051 11.5776Z" fill="black"/>
<path d="M77.3562 21.6844C78.3731 21.6844 79.1975 20.8619 79.1975 19.8473C79.1975 18.8327 78.3731 18.0103 77.3562 18.0103C76.3393 18.0103 75.515 18.8327 75.515 19.8473C75.515 20.8619 76.3393 21.6844 77.3562 21.6844Z" fill="black"/>
<path d="M27.9001 11.8008C27.7108 11.0797 27.3724 10.433 26.8905 9.855C26.4087 9.27698 25.7548 8.80769 24.9231 8.44714C24.0913 8.08659 23.0359 7.90918 21.751 7.90918C20.8849 7.90918 20.0245 8.02936 19.1756 8.26973C19.8983 8.82486 20.3744 9.68903 20.3744 10.6677C20.3744 10.7306 20.3572 10.7879 20.3572 10.8451C20.7128 10.7707 21.0799 10.7306 21.4528 10.7306C22.3533 10.7306 23.1277 10.9481 23.7816 11.3773C24.4298 11.8065 24.7567 12.4704 24.7567 13.3689V13.7295C23.6325 13.7295 22.491 13.7867 21.3151 13.8954C20.1449 14.0042 19.078 14.2331 18.1144 14.5708C17.1507 14.9084 16.3649 15.4006 15.7569 16.0416C15.1431 16.6825 14.8391 17.541 14.8391 18.6169C14.8391 19.4582 15.0169 20.1621 15.3668 20.7287C15.7167 21.301 16.1584 21.7589 16.6861 22.108C17.2138 22.4571 17.7989 22.7089 18.4299 22.8577C19.0608 23.0065 19.6689 23.0809 20.2482 23.0809C21.2692 23.0809 22.1812 22.8748 22.9843 22.4685C23.7873 22.0565 24.3667 21.5357 24.728 20.8947H24.8198V22.726H28.1869V13.9698C28.1869 13.243 28.0894 12.5219 27.9001 11.8008ZM24.7567 16.6597C24.7567 17.7985 24.4355 18.697 23.7931 19.3552C23.1506 20.0133 22.2099 20.3453 20.9709 20.3453C20.6727 20.3453 20.3687 20.3167 20.0704 20.2537C19.7721 20.1908 19.4968 20.0935 19.2616 19.9561C19.0207 19.8188 18.8257 19.6299 18.6765 19.401C18.5274 19.1721 18.4528 18.8859 18.4528 18.5482C18.4528 18.0103 18.6306 17.5868 18.992 17.272C19.3534 16.963 19.8008 16.7226 20.3457 16.5509C20.8849 16.3792 21.4757 16.2705 22.1181 16.219C22.7606 16.1675 23.3686 16.1446 23.9537 16.1446H24.7625V16.6597H24.7567Z" fill="black"/>
<path d="M17.3343 12.4935C18.3496 12.4935 19.1756 11.6694 19.1756 10.6564C19.1756 9.64345 18.3496 8.81934 17.3343 8.81934C16.319 8.81934 15.493 9.64345 15.493 10.6564C15.493 11.6694 16.319 12.4935 17.3343 12.4935Z" fill="black"/>
<path d="M13.0323 11.5602C12.8315 10.862 12.516 10.2439 12.0858 9.70026C11.6556 9.16229 11.105 8.72734 10.4339 8.39541C9.76275 8.06348 8.95397 7.90323 8.01326 7.90323C7.47407 7.90323 6.9693 7.97191 6.51042 8.11498C6.05153 8.25233 5.63854 8.44119 5.27717 8.67011C4.9158 8.89903 4.60032 9.16229 4.33072 9.44844C4.06113 9.74032 3.85463 10.0322 3.71697 10.3355H3.65961V4.25195C3.1491 4.63539 2.52387 4.87004 1.84128 4.87004C1.17016 4.87004 0.556408 4.64684 0.057373 4.28057V22.7144H3.66534V14.8567C3.66534 14.376 3.73417 13.9067 3.87757 13.4488C4.01524 12.991 4.22747 12.5732 4.50854 12.2069C4.7896 11.8349 5.1395 11.5431 5.55823 11.3199C5.97696 11.1024 6.48174 10.9879 7.06108 10.9879C7.64042 10.9879 8.10503 11.1081 8.46067 11.3485C8.81057 11.5888 9.08016 11.8922 9.26945 12.2642C9.45874 12.6362 9.58493 13.0425 9.64229 13.4946C9.69965 13.9467 9.73407 14.3817 9.73407 14.7995V22.7144H13.342V13.7178C13.3363 12.9795 13.2331 12.2642 13.0323 11.5602Z" fill="black"/>
<path d="M1.84127 3.67417C2.85655 3.67417 3.68254 2.85006 3.68254 1.83709C3.68254 0.824113 2.85655 0 1.84127 0C0.825989 0 0 0.824113 0 1.83709C0 2.85006 0.825989 3.67417 1.84127 3.67417Z" fill="black"/>
<path d="M91.7135 18.4281C92.2125 18.0732 92.8206 17.8558 93.4802 17.8558C94.1743 17.8558 94.8052 18.0961 95.3215 18.491V13.7238C95.3215 12.9855 95.224 12.2644 95.0232 11.5662C94.8224 10.868 94.507 10.2499 94.0767 9.7062C93.6465 9.16824 93.0959 8.73329 92.4248 8.40136C91.7537 8.06942 90.9449 7.90918 90.0042 7.90918C88.9201 7.90918 87.9851 8.18388 87.1935 8.73329C86.4019 9.2827 85.8455 9.91795 85.5243 10.6391H85.4612V8.33268H82.0368V22.7203H85.6448V14.7997C85.6448 14.3189 85.7136 13.8439 85.857 13.3747C85.9947 12.9054 86.2012 12.4876 86.4708 12.1328C86.7404 11.7722 87.0845 11.4803 87.509 11.2457C87.9277 11.0168 88.4325 10.9023 89.0118 10.9023C89.5912 10.9023 90.0558 11.0225 90.4114 11.2629C90.7613 11.5032 91.0366 11.8065 91.2374 12.1785C91.4382 12.5505 91.5701 12.9626 91.6275 13.4204C91.6848 13.8783 91.7192 14.3189 91.7192 14.7367V18.4281H91.7135Z" fill="black"/>
<path d="M93.4802 22.7259C94.4971 22.7259 95.3215 21.9034 95.3215 20.8888C95.3215 19.8742 94.4971 19.0518 93.4802 19.0518C92.4633 19.0518 91.6389 19.8742 91.6389 20.8888C91.6389 21.9034 92.4633 22.7259 93.4802 22.7259Z" fill="black"/>
<path d="M45.527 12.4933C45.1885 11.5719 44.7067 10.7764 44.0872 10.0954C43.4677 9.41433 42.722 8.88209 41.8616 8.49293C41.0012 8.10376 40.0605 7.90918 39.0395 7.90918C38.3799 7.90918 37.7833 7.98358 37.2499 8.13238C36.7164 8.28118 36.2403 8.47003 35.8216 8.70468C35.4028 8.9336 35.0472 9.19686 34.7547 9.48301C34.4621 9.77488 34.227 10.0553 34.0491 10.3357H33.9574V8.32696H30.5043V25.7421C31.0148 25.3643 31.6343 25.1297 32.3169 25.1297C32.988 25.1297 33.6017 25.3529 34.1065 25.7249V20.7974H34.1639C34.6227 21.5185 35.2824 22.0851 36.1313 22.5086C36.9803 22.9263 37.921 23.1381 38.942 23.1381C40.0433 23.1381 41.0299 22.9321 41.9018 22.5257C42.7737 22.1137 43.5136 21.5643 44.1274 20.8775C44.7354 20.1908 45.2115 19.3781 45.5384 18.451C45.8711 17.5238 46.0317 16.528 46.0317 15.4693C46.0375 14.3991 45.8654 13.409 45.527 12.4933ZM42.7622 17.1404C42.5901 17.7012 42.3377 18.1991 41.9936 18.6398C41.6551 19.0805 41.2192 19.441 40.7029 19.7215C40.181 20.0019 39.5729 20.1392 38.8674 20.1392C38.2078 20.1392 37.617 20.0019 37.095 19.7329C36.573 19.4639 36.1256 19.1091 35.7585 18.6684C35.3856 18.2278 35.1046 17.7356 34.9153 17.1862C34.726 16.6368 34.6285 16.0816 34.6285 15.5208C34.6285 14.9599 34.7203 14.4048 34.9153 13.8439C35.1046 13.2831 35.3856 12.7852 35.7585 12.3445C36.1313 11.9038 36.573 11.5433 37.095 11.2629C37.617 10.9824 38.2078 10.8451 38.8674 10.8451C39.5672 10.8451 40.181 10.9824 40.7029 11.2514C41.2249 11.5204 41.6551 11.8752 41.9936 12.3159C42.332 12.7566 42.5901 13.2487 42.7622 13.7982C42.9343 14.3476 43.0203 14.9027 43.0203 15.4635C43.0203 16.0187 42.9343 16.5795 42.7622 17.1404Z" fill="black"/>
<path d="M32.3169 29.9999C33.3338 29.9999 34.1581 29.1774 34.1581 28.1628C34.1581 27.1482 33.3338 26.3257 32.3169 26.3257C31.3 26.3257 30.4756 27.1482 30.4756 28.1628C30.4756 29.1774 31.3 29.9999 32.3169 29.9999Z" fill="black"/>
<path d="M62.9358 12.4933C62.5974 11.5719 62.1156 10.7764 61.4961 10.0954C60.8766 9.41433 60.1309 8.88209 59.2705 8.49293C58.4101 8.10376 57.4694 7.90918 56.4484 7.90918C55.7887 7.90918 55.1922 7.98358 54.6587 8.13238C54.1253 8.28118 53.6492 8.47003 53.2305 8.70468C52.8117 8.9336 52.4561 9.19686 52.1636 9.48301C51.871 9.77488 51.6358 10.0553 51.458 10.3357H51.3662V8.32696H47.9131V25.7421C48.4237 25.3643 49.0431 25.1297 49.7257 25.1297C50.3969 25.1297 51.0106 25.3529 51.5154 25.7249V20.7974H51.5727C52.0316 21.5185 52.6913 22.0851 53.5402 22.5086C54.3891 22.9263 55.3298 23.1381 56.3509 23.1381C57.4522 23.1381 58.4388 22.9321 59.3107 22.5257C60.1825 22.1137 60.9225 21.5643 61.5362 20.8775C62.1443 20.1908 62.6204 19.3781 62.9473 18.451C63.28 17.5238 63.4406 16.528 63.4406 15.4693C63.4463 14.3991 63.2743 13.409 62.9358 12.4933ZM60.1711 17.1404C59.999 17.7012 59.7466 18.1991 59.4024 18.6398C59.064 19.0805 58.6281 19.441 58.1118 19.7215C57.5898 20.0019 56.9818 20.1392 56.2763 20.1392C55.6166 20.1392 55.0258 20.0019 54.5039 19.7329C53.9819 19.4639 53.5345 19.1091 53.1674 18.6684C52.7945 18.2278 52.5135 17.7356 52.3242 17.1862C52.1349 16.6368 52.0374 16.0816 52.0374 15.5208C52.0374 14.9599 52.1291 14.4048 52.3242 13.8439C52.5135 13.2831 52.7945 12.7852 53.1674 12.3445C53.5402 11.9038 53.9819 11.5433 54.5039 11.2629C55.0258 10.9824 55.6166 10.8451 56.2763 10.8451C56.9761 10.8451 57.5898 10.9824 58.1118 11.2514C58.6338 11.5204 59.064 11.8752 59.4024 12.3159C59.7409 12.7566 59.999 13.2487 60.1711 13.7982C60.3431 14.3476 60.4292 14.9027 60.4292 15.4635C60.4292 16.0187 60.3431 16.5795 60.1711 17.1404Z" fill="black"/>
<path d="M49.7257 29.9999C50.7426 29.9999 51.567 29.1774 51.567 28.1628C51.567 27.1482 50.7426 26.3257 49.7257 26.3257C48.7088 26.3257 47.8845 27.1482 47.8845 28.1628C47.8845 29.1774 48.7088 29.9999 49.7257 29.9999Z" fill="black"/>
<path d="M107.66 12.1097C108.681 12.1097 109.501 11.2856 109.501 10.2726C109.501 9.25966 108.675 8.43555 107.66 8.43555C106.639 8.43555 105.813 9.25966 105.813 10.2726C105.813 11.2856 106.644 12.1097 107.66 12.1097Z" fill="black"/>
<path d="M104.614 10.2668C104.614 9.51712 104.895 8.84181 105.348 8.30957H97.7651V11.194H104.775C104.677 10.9021 104.614 10.593 104.614 10.2668Z" fill="black"/>
<path d="M107.809 13.2944C107.757 13.2944 107.711 13.3116 107.66 13.3116C106.426 13.3116 105.371 12.579 104.895 11.5317L98.9868 17.8557C99.0729 17.8499 99.1532 17.8328 99.2392 17.8328C100.427 17.8328 101.448 18.5195 101.947 19.5096L107.809 13.2944Z" fill="black"/>
<path d="M102.079 19.79C102.205 20.1277 102.285 20.4882 102.285 20.866C102.285 21.5756 102.033 22.2166 101.625 22.7317H109.868V19.79H102.079Z" fill="black"/>
<path d="M99.2392 19.0229C98.2182 19.0229 97.3979 19.8471 97.3979 20.8658C97.3979 21.8845 98.2239 22.7028 99.2392 22.7028C100.26 22.7028 101.08 21.8787 101.08 20.8658C101.08 19.8471 100.254 19.0229 99.2392 19.0229Z" fill="black"/>
</svg>
