<svg width="104" height="38" viewBox="0 0 104 38" fill="none" xmlns="http://www.w3.org/2000/svg">
<g clip-path="url(#clip0_1_165)" filter="url(#filter0_d_1_165)">
<path fill-rule="evenodd" clip-rule="evenodd" d="M24.2763 15.8125C23.3783 15.623 20.7029 14.9528 18.1056 16.7109C18.103 16.7098 18.1002 16.7088 18.0975 16.708C17.8426 16.8732 17.5776 17.022 17.304 17.1537C16.4806 17.5337 15.585 17.7304 14.6786 17.7304C13.7722 17.7304 12.8765 17.5337 12.0531 17.1537C11.2508 16.7775 10.5267 16.2524 9.91906 15.6062C9.30705 14.9532 8.81712 14.1952 8.47266 13.3684C8.12063 12.5237 7.93936 11.6174 7.93936 10.702C7.93936 9.78656 8.12063 8.88024 8.47266 8.0356C8.81248 7.20632 9.30293 6.44752 9.91906 5.79779C10.5296 5.15849 11.2532 4.63835 12.053 4.26378C12.8764 3.88381 13.772 3.68707 14.6784 3.68707C15.5848 3.68707 16.4805 3.88381 17.3039 4.26378C18.1038 4.63832 18.8276 5.15846 19.4383 5.79779C20.0543 6.44756 20.5446 7.20635 20.8843 8.0356C21.2366 8.88019 21.4179 9.78653 21.4179 10.702C21.4179 11.6174 21.2366 12.5238 20.8843 13.3684C20.8354 13.484 20.7784 13.5938 20.7243 13.7053C22.1076 13.5767 23.5022 13.6482 24.8651 13.9175C25.1958 12.8756 25.3618 11.7881 25.3571 10.6947C25.3644 9.26721 25.077 7.85368 24.513 6.54298C23.4248 3.97792 21.3878 1.93536 18.8296 0.844098C17.5144 0.277197 16.0962 -0.0102902 14.6647 -0.00023325C13.2424 -0.00838437 11.8339 0.279105 10.528 0.844098C7.96941 1.93507 5.9321 3.97794 4.84418 6.54346C4.28 7.8541 3.99258 9.26767 4.00002 10.6952C3.9897 12.1273 4.2772 13.546 4.84418 14.8605C5.93837 17.4185 7.97424 19.4548 10.528 20.5456C11.8337 21.111 13.2423 21.3986 14.6645 21.3901C16.0961 21.4005 17.5142 21.1129 18.8293 20.5456C19.1999 20.3822 19.5617 20.1993 19.9131 19.9977C19.953 19.9817 20 19.964 20.0341 19.948C20.8487 19.5638 21.3839 19.3401 22.3199 19.3714C24.1403 19.4319 24.5512 20.322 24.6517 21.0457H29.1957C29.1957 19.8014 28.1363 16.6268 24.2763 15.8125ZM44.16 5.75191H40.345V14.3614H40.3483C40.3424 15.2125 40.001 16.0266 39.3987 16.6263C38.7964 17.2259 37.982 17.5625 37.1332 17.5625C36.2844 17.5625 35.4701 17.2259 34.8678 16.6263C34.2655 16.0266 33.9241 15.2125 33.9181 14.3614H33.9219V5.75191H30.1058V14.3614C30.1058 16.2302 30.8462 18.0224 32.164 19.3438C33.4819 20.6652 35.2694 21.4076 37.1331 21.4076C38.9969 21.4076 40.7844 20.6652 42.1022 19.3438C43.4201 18.0224 44.1605 16.2302 44.1605 14.3614V5.75191H44.16ZM96.1837 5.75191V10.8902H96.1855C96.1834 11.3411 96.0861 11.7864 95.8999 12.1968C95.7136 12.6071 95.4428 12.9733 95.1051 13.271L95.1135 13.272C97.1295 13.5729 98.6307 14.9876 98.6519 15.0078C99.5252 13.8134 99.9968 12.3713 99.9983 10.8902H100V5.75191H96.1842H96.1837ZM100 21.1196C100 21.113 100 21.1068 100 21.1004V21.0726H99.9987C99.9934 20.12 99.7936 19.1785 99.4116 18.3062C99.0296 17.4339 98.4735 16.6493 97.7776 16.0007L97.7818 15.997C97.1898 15.4612 95.8863 14.2026 92.972 14.0978C91.2005 14.0337 89.7626 12.6623 89.7581 10.8904H89.7611V5.75191H85.9453V10.8696C85.9447 10.8735 85.9444 10.8776 85.9443 10.8816C85.9473 12.7102 86.6605 14.4657 87.9327 15.7759C89.2049 17.086 90.9361 17.8478 92.7591 17.8997C92.8029 17.9014 93.0027 17.9083 93.0183 17.9078C93.8534 17.9185 94.6514 18.2555 95.2424 18.8471C95.8335 19.4387 96.1711 20.2382 96.1832 21.0755V22.9644H96.1869C96.1871 22.9664 96.1871 22.9685 96.1869 22.9706C96.1809 23.8217 95.8395 24.6358 95.2372 25.2355C94.6349 25.8351 93.8206 26.1717 92.9718 26.1717C92.123 26.1717 91.3086 25.8351 90.7063 25.2355C90.104 24.6358 89.7626 23.8217 89.7567 22.9706C89.7567 22.964 89.7587 21.9981 89.7587 21.992C89.7587 21.992 85.9448 22.0047 85.9442 22.0113C85.4866 26.7614 89.0911 29.9998 92.9723 29.9998C94.8338 30.0021 96.62 29.2629 97.938 27.9448C99.2559 26.6267 99.9976 24.8376 100 22.9711C100 22.9683 100 22.9654 100 22.9626V21.1345C100 21.1297 100 21.1246 100 21.1196ZM58.9455 23.6919C58.7758 24.2624 58.5032 24.7968 58.1411 25.2686C57.7745 25.7391 57.3123 26.1261 56.7853 26.4041C56.1744 26.695 55.5065 26.8459 54.8302 26.8459C54.1539 26.8459 53.486 26.695 52.8751 26.4041C52.3482 26.1262 51.8863 25.7392 51.52 25.2686C51.1577 24.797 50.8852 24.2625 50.716 23.6919C50.549 23.1438 50.4607 22.5747 50.4538 22.0016H46.604C46.5978 23.1024 46.8167 24.1928 47.2471 25.2055C47.6545 26.1609 48.2495 27.0244 48.9965 27.7445C49.753 28.4623 50.6423 29.0249 51.6141 29.4006C53.6841 30.1995 55.9761 30.1995 58.0461 29.4006C59.018 29.0249 59.9072 28.4623 60.6637 27.7445C61.4106 27.0241 62.0057 26.1608 62.4136 25.2055C62.8434 24.1927 63.0622 23.1024 63.0565 22.0016H59.2077C59.2003 22.5746 59.112 23.1437 58.9455 23.6919ZM64.8706 5.85875C59.2138 5.78993 58.8635 11.0762 59.1005 12.1701H59.0845C59.1647 12.5469 59.2076 12.9307 59.2125 13.3159C59.2109 13.9147 59.1207 14.51 58.9448 15.0822C58.7752 15.6527 58.5026 16.187 58.1405 16.6588C57.7739 17.1293 57.3117 17.5164 56.7847 17.7944C56.1737 18.0852 55.5058 18.236 54.8295 18.236C54.1532 18.236 53.4854 18.0852 52.8744 17.7944C52.3478 17.5164 51.8861 17.1293 51.52 16.6588C51.1577 16.1872 50.8851 15.6528 50.716 15.0822C50.5398 14.5098 50.4495 13.9143 50.448 13.3153C50.4489 12.7215 50.5393 12.1313 50.716 11.5647C50.888 11.0002 51.1603 10.4716 51.52 10.0044C51.8848 9.53607 52.3476 9.15381 52.8759 8.88458C53.4898 8.60435 54.1565 8.45935 54.831 8.45935C55.5055 8.45935 56.1722 8.60435 56.7861 8.88458C57.2003 9.10516 57.5734 9.39573 57.889 9.74351C57.9013 9.68945 57.905 9.63217 57.9184 9.57843C58.1004 8.78585 58.4441 8.03962 58.9277 7.38666C59.119 7.13651 59.3353 6.90661 59.5731 6.70052C59.0926 6.39212 58.5808 6.13571 58.0463 5.9356C55.9687 5.17867 53.6918 5.17867 51.6143 5.9356C50.6431 6.29042 49.753 6.83729 48.9967 7.54372C48.2506 8.25247 47.6554 9.10546 47.2472 10.0512C46.8053 11.0816 46.585 12.1938 46.6007 13.3153C46.586 14.4418 46.8061 15.559 47.2471 16.5952C47.6545 17.5505 48.2495 18.4139 48.9965 19.134C49.753 19.8518 50.6423 20.4144 51.6141 20.7901C53.684 21.5892 55.9762 21.5892 58.0461 20.7901C59.018 20.4144 59.9072 19.8519 60.6637 19.134C61.4106 18.4137 62.0057 17.5504 62.4136 16.5952C62.8542 15.5588 63.0744 14.4418 63.0602 13.3153C63.0602 13.1085 63.045 12.9099 63.032 12.7095L63.0546 12.7127V12.5029C63.0556 12.1119 63.0872 11.7217 63.1491 11.3358C63.2078 10.95 63.3305 10.5768 63.512 10.2317C63.6919 9.89417 63.9586 9.6111 64.2845 9.41191C64.6597 9.20372 65.0831 9.09858 65.5119 9.10709H67.3111V5.85667L64.8706 5.85875ZM83.5637 9.97517C83.2389 9.0283 82.7193 8.16037 82.0387 7.42757C81.392 6.74868 80.6027 6.2226 79.728 5.88747C78.7992 5.53459 77.8129 5.35858 76.8197 5.36848C75.7391 5.35897 74.6667 5.55647 73.66 5.95036C72.7074 6.31718 71.8411 6.87827 71.1159 7.59813C70.3907 8.31799 69.8224 9.18095 69.4471 10.1324C69.0274 11.1871 68.819 12.3144 68.8339 13.4499C68.8149 14.5859 69.0234 15.7142 69.4471 16.768C69.8288 17.7038 70.4079 18.5457 71.1447 19.236C71.8878 19.9196 72.7588 20.4488 73.7071 20.793C74.7451 21.169 75.8419 21.3554 76.9455 21.3434C79.0811 21.3768 81.1528 20.6121 82.757 19.1982L80.6986 16.7619C80.3698 17.1002 79.4743 17.6516 79.3037 17.7426C78.6536 18.0888 77.857 18.2617 76.9139 18.2614C76.3772 18.263 75.8446 18.167 75.3419 17.9781C74.8522 17.7976 74.3955 17.5374 73.9901 17.2081C73.5957 16.8887 73.2696 16.4929 73.0312 16.0443C72.7866 15.582 72.642 15.0731 72.6069 14.5509C72.5249 13.6514 72.5249 12.7462 72.6069 11.8467C72.6355 11.3432 72.7659 10.8508 72.9902 10.3995C73.2145 9.94809 73.5279 9.54714 73.9115 9.221C74.711 8.53434 75.7362 8.16967 76.7885 8.19763C77.3327 8.1853 77.8734 8.28716 78.376 8.49667C78.7962 8.67325 79.172 8.94115 79.4763 9.28103C79.7807 9.6209 80.006 10.0243 80.136 10.4621C80.2735 10.9102 80.3424 11.3767 80.3405 11.8456H73.8986V14.5506H84.0823C84.1033 14.3836 84.114 14.2156 84.1143 14.0473V13.5447C84.1378 12.3319 83.9516 11.1242 83.5637 9.97517Z" fill="black"/>
</g>
<defs>
<filter id="filter0_d_1_165" x="0" y="0" width="104" height="38" filterUnits="userSpaceOnUse" color-interpolation-filters="sRGB">
<feFlood flood-opacity="0" result="BackgroundImageFix"/>
<feColorMatrix in="SourceAlpha" type="matrix" values="0 0 0 0 0 0 0 0 0 0 0 0 0 0 0 0 0 0 127 0" result="hardAlpha"/>
<feOffset dy="4"/>
<feGaussianBlur stdDeviation="2"/>
<feComposite in2="hardAlpha" operator="out"/>
<feColorMatrix type="matrix" values="0 0 0 0 0 0 0 0 0 0 0 0 0 0 0 0 0 0 0.25 0"/>
<feBlend mode="normal" in2="BackgroundImageFix" result="effect1_dropShadow_1_165"/>
<feBlend mode="normal" in="SourceGraphic" in2="effect1_dropShadow_1_165" result="shape"/>
</filter>
<clipPath id="clip0_1_165">
<rect width="96" height="30" fill="white" transform="translate(4)"/>
</clipPath>
</defs>
</svg>
