<svg width="16" height="16" viewBox="0 0 16 16" fill="none" xmlns="http://www.w3.org/2000/svg">
<path d="M8.00356 3.95732C5.73214 3.95732 3.89999 5.76084 3.89999 7.99678C3.89999 10.2327 5.73214 12.0362 8.00356 12.0362C10.275 12.0362 12.1071 10.2327 12.1071 7.99678C12.1071 5.76084 10.275 3.95732 8.00356 3.95732ZM8.00356 10.6229C6.53571 10.6229 5.33571 9.44522 5.33571 7.99678C5.33571 6.54834 6.53214 5.37061 8.00356 5.37061C9.47499 5.37061 10.6714 6.54834 10.6714 7.99678C10.6714 9.44522 9.47142 10.6229 8.00356 10.6229ZM13.2321 3.79209C13.2321 4.31592 12.8036 4.73428 12.275 4.73428C11.7429 4.73428 11.3179 4.3124 11.3179 3.79209C11.3179 3.27178 11.7464 2.8499 12.275 2.8499C12.8036 2.8499 13.2321 3.27178 13.2321 3.79209ZM15.95 4.74834C15.8893 3.48623 15.5964 2.36826 14.6571 1.44717C13.7214 0.526074 12.5857 0.237793 11.3036 0.174512C9.98214 0.100684 6.02142 0.100684 4.69999 0.174512C3.42142 0.234277 2.28571 0.522559 1.34642 1.44365C0.407136 2.36475 0.11785 3.48271 0.0535644 4.74482C-0.0214355 6.04561 -0.0214355 9.94443 0.0535644 11.2452C0.114279 12.5073 0.407136 13.6253 1.34642 14.5464C2.28571 15.4675 3.41785 15.7558 4.69999 15.819C6.02142 15.8929 9.98214 15.8929 11.3036 15.819C12.5857 15.7593 13.7214 15.471 14.6571 14.5464C15.5928 13.6253 15.8857 12.5073 15.95 11.2452C16.025 9.94443 16.025 6.04912 15.95 4.74834ZM14.2428 12.6409C13.9643 13.33 13.425 13.8608 12.7214 14.1386C11.6679 14.5499 9.16785 14.455 8.00356 14.455C6.83928 14.455 4.33571 14.5464 3.28571 14.1386C2.58571 13.8644 2.04642 13.3335 1.76428 12.6409C1.34642 11.6038 1.44285 9.14287 1.44285 7.99678C1.44285 6.85068 1.34999 4.38623 1.76428 3.35264C2.04285 2.66357 2.58214 2.13271 3.28571 1.85498C4.33928 1.44365 6.83928 1.53857 8.00356 1.53857C9.16785 1.53857 11.6714 1.44717 12.7214 1.85498C13.4214 2.1292 13.9607 2.66006 14.2428 3.35264C14.6607 4.38975 14.5643 6.85068 14.5643 7.99678C14.5643 9.14287 14.6607 11.6073 14.2428 12.6409Z" fill="black"/>
</svg>
