<svg width="18" height="18" viewBox="0 0 18 18" fill="none" xmlns="http://www.w3.org/2000/svg">
<g clip-path="url(#clip0_1_226)">
<path d="M8.99999 1.81148e-06C6.90152 -0.00132902 4.86855 0.730662 3.2526 2.06941C1.63664 3.40816 0.539286 5.2695 0.150275 7.33159C-0.238737 9.39368 0.105051 11.5269 1.12219 13.3624C2.13934 15.1978 3.76589 16.6202 5.72061 17.3835C5.64186 16.6714 5.56986 15.5768 5.75099 14.7994C5.91524 14.0963 6.80624 10.3253 6.80624 10.3253C6.80624 10.3253 6.53736 9.78638 6.53736 8.98988C6.53736 7.73775 7.26299 6.804 8.16636 6.804C8.93361 6.804 9.30486 7.38 9.30486 8.07188C9.30486 8.84363 8.81324 9.99788 8.55899 11.0678C8.34749 11.9633 9.00899 12.6945 9.89211 12.6945C11.4919 12.6945 12.7215 11.007 12.7215 8.5725C12.7215 6.41813 11.1724 4.91175 8.96174 4.91175C6.40124 4.91175 4.89824 6.83213 4.89824 8.81663C4.89824 9.59063 5.19636 10.4198 5.56761 10.8709C5.59958 10.9049 5.62219 10.9466 5.63323 10.9919C5.64427 11.0373 5.64337 11.0847 5.63061 11.1296C5.56199 11.4131 5.41011 12.0251 5.38086 12.15C5.34149 12.3143 5.25036 12.3491 5.07936 12.2704C3.95436 11.7473 3.25236 10.1036 3.25236 8.78288C3.25236 5.9445 5.31561 3.33788 9.19911 3.33788C12.321 3.33788 14.7476 5.562 14.7476 8.53538C14.7476 11.637 12.7912 14.1334 10.0777 14.1334C9.16536 14.1334 8.30811 13.6598 8.01449 13.0995L7.45424 15.2393C7.25061 16.0211 6.70161 17.001 6.33486 17.5984C7.57233 17.981 8.87781 18.092 10.1621 17.9238C11.4464 17.7556 12.6793 17.3122 13.7765 16.6238C14.8737 15.9354 15.8094 15.0183 16.5197 13.9352C17.2299 12.852 17.698 11.6283 17.892 10.3476C18.0859 9.06694 18.0011 7.7595 17.6434 6.5146C17.2857 5.2697 16.6635 4.11667 15.8194 3.13429C14.9752 2.15191 13.9289 1.36332 12.752 0.822393C11.5751 0.281466 10.2953 0.000947591 8.99999 1.81148e-06Z" fill="black"/>
</g>
<defs>
<clipPath id="clip0_1_226">
<rect width="18" height="18" fill="white"/>
</clipPath>
</defs>
</svg>
