<svg width="18" height="18" viewBox="0 0 18 18" fill="none" xmlns="http://www.w3.org/2000/svg">
<path d="M5.65425 16.8748C12.447 16.8748 16.1629 11.2464 16.1629 6.37405C16.1629 6.21655 16.1629 6.0568 16.1561 5.8993C16.8796 5.3756 17.5039 4.72722 18 3.98455C17.3242 4.28251 16.6081 4.47888 15.8749 4.5673C16.6472 4.10565 17.2257 3.37927 17.5028 2.52318C16.7771 2.95307 15.9829 3.25485 15.1549 3.4153C14.5982 2.82245 13.8616 2.42971 13.0591 2.29791C12.2566 2.1661 11.4331 2.30259 10.716 2.68623C9.99895 3.06988 9.42841 3.67926 9.09276 4.42C8.7571 5.16073 8.67508 5.99148 8.85938 6.78355C7.39096 6.70992 5.95442 6.32845 4.64292 5.66389C3.33143 4.99932 2.17427 4.0665 1.2465 2.92593C0.775508 3.7394 0.63177 4.70163 0.844477 5.61723C1.05718 6.53283 1.61039 7.33315 2.39175 7.85568C1.80623 7.83578 1.23359 7.67856 0.72 7.39668V7.4473C0.72101 8.29947 1.01622 9.12515 1.55573 9.78478C2.09525 10.4444 2.84597 10.8975 3.681 11.0676C3.36405 11.1549 3.03663 11.1984 2.70788 11.1969C2.47611 11.1976 2.2448 11.1762 2.01712 11.1328C2.25313 11.8664 2.71268 12.5077 3.3314 12.9671C3.95012 13.4264 4.69703 13.6808 5.4675 13.6944C4.15862 14.7225 2.54183 15.28 0.8775 15.2773C0.584236 15.2785 0.291176 15.2616 0 15.2267C1.6892 16.3036 3.65096 16.8754 5.65425 16.8748Z" fill="black"/>
</svg>
