<svg width="122" height="30" viewBox="0 0 122 30" fill="none" xmlns="http://www.w3.org/2000/svg">
<path fill-rule="evenodd" clip-rule="evenodd" d="M28.388 19.4278C28.4008 22.7966 30.1023 25.6828 33.428 25.6828C36.33 25.6828 37.2047 24.3896 37.8355 22.9496H43.2622C42.4389 25.7145 40.0089 29.9621 33.2785 29.9621C26.0195 29.9621 22.9305 24.4135 22.9305 18.6138C22.9305 11.7568 26.4504 6.67622 33.5097 6.67622C41.0394 6.67622 43.5701 12.2803 43.5701 17.5614C43.5844 18.1839 43.5598 18.8067 43.4963 19.4262H28.388V19.4278ZM38.1319 16.007C38.0882 13.0569 36.7743 10.6216 33.4837 10.6216C30.1897 10.6216 28.815 12.8884 28.5185 16.007H38.1319ZM17.4692 7.19595C15.0467 14.6643 12.7909 21.3557 12.1892 24.6264H12.1463C11.6238 21.917 9.70408 15.2564 7.27649 7.19574H0C1.02053 7.19574 1.85969 8.30291 1.9701 8.68439L9.11726 29.4432H14.8738L22.8907 7.19595H17.4692ZM122 18.2653C122 24.9158 118.051 30 111.015 30C104.224 30 100.214 25.0541 100.214 18.3699C100.214 11.5764 104.281 6.61804 111.296 6.61804C117.785 6.61804 122 11.2599 122 18.2653ZM105.749 18.3091C105.749 22.8101 107.812 25.7031 111.159 25.7031C114.564 25.7031 116.465 22.8709 116.465 18.3391C116.465 13.5464 114.546 10.9151 111.071 10.9151C107.742 10.9151 105.749 13.4595 105.749 18.3091ZM82.7406 11.2753V7.1402H75.5493C76.5131 7.1402 77.1935 7.80912 77.2815 8.49831C77.2976 9.82581 77.3053 11.3449 77.3053 13.2043V29.4813H82.7406V19.3674C82.7406 13.4031 85.5251 11.2526 90.0726 11.2834V7.15013C86.2853 7.20162 83.7937 8.56419 82.7406 11.2753ZM51.9271 11.2753V7.1402H44.7358C45.6998 7.1402 46.3801 7.80912 46.4682 8.49831C46.484 9.82581 46.4918 11.3449 46.4918 13.2043V29.4813H51.9271V19.3674C51.9271 13.4031 54.7127 11.2526 59.2591 11.2834V7.15013C55.472 7.20162 52.9807 8.56419 51.9271 11.2753ZM92.2727 7.13939V29.4784H97.7082V7.13939H92.2727ZM97.695 0H92.2727V6.19601C92.2761 6.19601 92.2792 6.19601 92.2826 6.19601C93.715 6.19688 95.0892 5.63115 96.1036 4.623C97.118 3.61485 97.6898 2.24665 97.6933 0.818716L97.695 0ZM74.2134 11.2834V7.13919H69.6236V7.13412H64.1883V7.13919H60.5815V11.2834H64.1883V23.7876C64.1883 27.63 65.67 29.7827 69.7557 29.7827C70.9499 29.7827 72.5211 29.7561 73.662 29.3607V25.5596C73.1329 25.6397 72.5981 25.6761 72.063 25.6684C70.1484 25.6684 69.623 24.8562 69.623 23.0011V11.2834H74.2128H74.2134ZM69.5965 0.817703V0H64.1759V6.19581C64.1793 6.19581 64.1824 6.19581 64.1858 6.19581C65.6183 6.19635 66.9924 5.63041 68.0068 4.62215C69.0211 3.6139 69.5929 2.24568 69.5965 0.817703Z" fill="black"/>
</svg>
